<svg xmlns="http://www.w3.org/2000/svg" width="16" height="12.8" viewBox="0 0 16 12.8"><defs><style>.a,.b{fill:none;stroke-linecap:round;stroke-linejoin:round;}.b{stroke:#fff;stroke-width:2px;}.c,.d{stroke:none;}.d{fill:#fff;}</style></defs><g class="a" transform="translate(-3 -6)"><path class="c" d="M4.6,6H17.4A1.6,1.6,0,0,1,19,7.6v9.6a1.6,1.6,0,0,1-1.6,1.6H4.6A1.6,1.6,0,0,1,3,17.2V7.6A1.6,1.6,0,0,1,4.6,6Z"/><path class="d" d="M 5 8 L 5 16.79999923706055 L 17 16.79999923706055 L 17 8 L 5 8 M 4.600000381469727 6 L 17.39999961853027 6 C 18.28000068664551 6 19 6.720001220703125 19 7.600000381469727 L 19 17.20000076293945 C 19 18.07999992370605 18.28000068664551 18.80000114440918 17.39999961853027 18.80000114440918 L 4.600000381469727 18.80000114440918 C 3.719999313354492 18.80000114440918 3 18.07999992370605 3 17.20000076293945 L 3 7.600000381469727 C 3 6.720001220703125 3.719999313354492 6 4.600000381469727 6 Z"/></g><path class="b" d="M15.609,9,9.3,14.253,3,9" transform="translate(-1.305 -6.971)"/></svg>