<svg xmlns="http://www.w3.org/2000/svg" width="16" height="16" viewBox="0 0 16 16"><defs><style>.a{fill:#fff;}</style></defs><path class="a" d="M11.234,0H4.766A4.772,4.772,0,0,0,0,4.766v6.467A4.772,4.772,0,0,0,4.766,16h6.467A4.772,4.772,0,0,0,16,11.233V4.766A4.772,4.772,0,0,0,11.234,0ZM14.39,11.233a3.157,3.157,0,0,1-3.157,3.157H4.766A3.157,3.157,0,0,1,1.61,11.233V4.766A3.157,3.157,0,0,1,4.766,1.61h6.467A3.157,3.157,0,0,1,14.39,4.766v6.467Z"/><path class="a" d="M137.024,133a4.024,4.024,0,1,0,4.024,4.024A4.029,4.029,0,0,0,137.024,133Zm0,6.483a2.459,2.459,0,1,1,2.459-2.459A2.459,2.459,0,0,1,137.024,139.483Z" transform="translate(-129.024 -129.024)"/><ellipse class="a" cx="1.021" cy="1.021" rx="1.021" ry="1.021" transform="translate(11.108 2.889)"/></svg>