<svg xmlns="http://www.w3.org/2000/svg" width="42.374" height="38.881" viewBox="0 0 42.374 38.881"><defs><style>.a{fill:#fff;}</style></defs><path class="a" d="M689.415-209.455a15.445,15.445,0,0,1-1.606.89c-.144.061-.5-.151-.634-.331a12.38,12.38,0,0,0-7.3-4.984,12.313,12.313,0,0,0-15.071,11.165,12.266,12.266,0,0,0,10.986,13.049,11.966,11.966,0,0,0,9.351-2.987c.183-.157.37-.309.493-.412l1.658,1.479c-.5.43-.934.836-1.4,1.19a15.021,15.021,0,0,1-9.833,2.98c-4.212-.125-8.43-.026-12.646-.025h-.774c0-.321,0-.6,0-.88.006-3.948,0-7.9.028-11.844a23.507,23.507,0,0,1,.218-4.452,13.871,13.871,0,0,1,9.393-10.917,14.378,14.378,0,0,1,16.584,5.233C689.043-210.051,689.2-209.785,689.415-209.455Z" transform="translate(-647.041 216.382)"/><path class="a" d="M555.4-122.37c-.02-.3-.056-.573-.056-.85-.009-4.682-.027-9.364-.007-14.047a1.009,1.009,0,0,0-.813-1.144c-2.216-.749-4.409-1.568-6.612-2.356a2.592,2.592,0,0,1-1.687-3.2,2.532,2.532,0,0,1,3.3-1.714c3.138,1.086,6.255,2.231,9.372,3.376a2.319,2.319,0,0,1,1.589,2.271c.044,4.637.035,9.275.029,13.913a.78.78,0,0,1-.26.563c-1.515,1.061-3.047,2.1-4.578,3.135A.961.961,0,0,1,555.4-122.37Z" transform="translate(-546.103 155.275)"/><path class="a" d="M706.451-187.706a13.419,13.419,0,0,1-1.5.841c-.155.066-.52-.115-.656-.288a9.507,9.507,0,0,0-5.662-3.541,9.326,9.326,0,0,0-10.407,5.554,8.779,8.779,0,0,0,1.239,9.151,8.993,8.993,0,0,0,9.074,3.467,8.53,8.53,0,0,0,4.346-2.092c.4-.356.627-.342.972.058a8.016,8.016,0,0,0,1.064.888,11.4,11.4,0,0,1-12.027,2.783,11.459,11.459,0,0,1-7.49-11.875,11.36,11.36,0,0,1,9.579-10.106A11.259,11.259,0,0,1,706.451-187.706Z" transform="translate(-666.726 196.151)"/><path class="a" d="M619.842,11.686c1.5-1.068,3.022-2.114,4.5-3.216a3.065,3.065,0,0,1,1.974-.605c7.824.02,15.647,0,23.471,0,.086,0,.173.018.354.037-.041.445-.07.876-.121,1.305-.087.73-.2,1.457-.276,2.187a.475.475,0,0,1-.559.5c-1.338-.014-2.675.006-4.012-.029a.981.981,0,0,1-.661-.351,3.6,3.6,0,0,0-5.326,0,1.136,1.136,0,0,1-.794.344q-3.677.033-7.356-.012a1.157,1.157,0,0,1-.733-.338,3.542,3.542,0,0,0-5.273-.03,1.131,1.131,0,0,1-.665.36c-1.489.032-2.979.016-4.469.016Z" transform="translate(-609.971 22.154)"/><path class="a" d="M662.1,33.1a2.926,2.926,0,1,1-2.949-2.895A2.9,2.9,0,0,1,662.1,33.1Z" transform="translate(-641.505 2.804)"/><path class="a" d="M768.388,33.151a2.986,2.986,0,0,1-2.91,2.906,2.941,2.941,0,0,1-2.918-2.889,2.915,2.915,0,1,1,5.829-.018Z" transform="translate(-733.585 2.824)"/></svg>