<svg xmlns="http://www.w3.org/2000/svg" width="226.969" height="220.315" viewBox="0 0 226.969 220.315"><defs><style>.a,.e,.s{fill:#fff;}.a{opacity:0.39;}.b{fill:#407bff;}.c,.d,.e,.i,.j{opacity:0.2;}.f{opacity:0.1;}.g,.j,.t{fill:#fafafa;}.g,.u{opacity:0.5;}.h,.i,.k,.l,.p,.q{fill:none;}.h{stroke:#407bff;stroke-miterlimit:10;}.i{stroke:#000;stroke-width:2px;}.i,.k,.l,.p,.q{stroke-linecap:round;stroke-linejoin:round;}.k,.l{stroke:#fafafa;}.l{stroke-dasharray:5.198 5.198;}.m{fill:#b97964;}.n{fill:#263238;}.o{fill:#a24e3f;}.p,.q{stroke:#222221;}.p{stroke-width:0.75px;}.r{fill:#222221;}.s{opacity:0.4;}</style></defs><g transform="translate(0 41.109)"><path class="a" d="M126.968,177.685C159.954,161.671,228.087,89.171,258.386,147c25.356,48.394-30.724,93.792-64.3,110.4-43.675,21.613-107.871,13.078-142.428-27.776-14.862-17.591-20.224-42.462,5.7-47.09,8.747-1.565,23.6,4.137,33.484,3.64C103.517,185.54,115.928,183.041,126.968,177.685Z" transform="translate(-39.215 -124.975)"/></g><g transform="translate(76.061 0)"><path class="b" d="M194.873,144.831c-1.341,3.257-9.232,3.033-17.5-.376s-13.891-8.814-12.55-12.071c.315-.752,1.213-3.573,2.111-3.961,3.081-1.3,8.947,1.626,15.3,4.246,5.914,2.426,12.678,4.01,13.727,7.219C196.589,141.84,195.255,143.9,194.873,144.831Z" transform="translate(-164.612 -85.096)"/><path class="c" d="M195.951,139.915c.5,2.554-.607,3.779-1.086,4.944s-1.88,1.929-3.84,2.2a6.886,6.886,0,0,1-.74.085,20.263,20.263,0,0,1-4.495-.237,4.053,4.053,0,0,1-.643-.1,35.735,35.735,0,0,1-5.138-1.322l-.607-.206c-.673-.237-1.365-.5-2.056-.782s-1.347-.607-2-.892l-.558-.267a36.133,36.133,0,0,1-4.41-2.584l-.5-.352a19.807,19.807,0,0,1-3.354-3c-.152-.17-.291-.334-.425-.5-1.3-1.65-1.82-3.227-1.3-4.483.34-.807,1.068-3.567,2.111-3.967a7.237,7.237,0,0,1,3.925,0l.607.146A94.347,94.347,0,0,1,182.2,132.7c4.6,1.9,10.039,3.87,12.708,6.145a6.065,6.065,0,0,1,.455.425A5.453,5.453,0,0,1,195.951,139.915Z" transform="translate(-164.605 -85.124)"/><g class="d" transform="translate(1.514 42.653)"><path d="M172.729,127.811l-.279.51-4.926,8.814c-.152-.17-.291-.334-.425-.5l4.731-8.456.37-.655Z" transform="translate(-167.1 -127.52)"/></g><g class="d" transform="translate(5.293 46.262)"><path d="M178.9,133.749l-5.077,9.1-.5-.352,5.047-9.026Z" transform="translate(-173.33 -133.47)"/></g><g class="d" transform="translate(14.798 51.436)"><path d="M194.4,142.322l-4.8,8.6-.607-.206L193.853,142Z" transform="translate(-189 -142)"/></g><g class="d" transform="translate(10.2 49.01)"><path d="M187.08,138.321l-5.1,9.141-.558-.267,5.132-9.2Z" transform="translate(-181.42 -138)"/></g><g class="d" transform="translate(20.542 53.117)"><path d="M203.79,145.073l-4.677,8.359a4.051,4.051,0,0,1-.643-.1l4.786-8.559Z" transform="translate(-198.47 -144.77)"/></g><path class="b" d="M196.664,141.456c-1.341,3.257-9.135,3.13-17.409-.285s-13.891-8.814-12.544-12.071,9.135-3.124,17.409.285S198,138.18,196.664,141.456Z" transform="translate(-165.355 -84.56)"/><path class="e" d="M196.125,141.714c-.946,2.3-7.024,1.978-13.57-.722s-11.082-6.757-10.136-9.056,7.024-1.977,13.576.722S197.077,139.415,196.125,141.714Z" transform="translate(-167.63 -86.001)"/><path class="b" d="M265.16,104.881c2.159,2.784-1.953,9.524-9.032,15s-14.558,7.661-16.712,4.853c-.5-.643-2.511-2.8-2.39-3.8.406-3.318,5.86-6.946,11.295-11.155,5.059-3.919,9.784-9,13.09-8.316C263.419,101.9,264.548,104.092,265.16,104.881Z" transform="translate(-193.094 -74.59)"/><path class="c" d="M261.42,101.54c2.469.837,2.978,2.426,3.749,3.4s.74,2.59,0,4.428c-.085.224-.188.449-.3.679a20.091,20.091,0,0,1-2.426,3.785c-.127.17-.267.334-.406.5a35.627,35.627,0,0,1-3.712,3.809l-.467.406c-.54.467-1.11.934-1.7,1.389s-1.177.886-1.771,1.292c-.164.121-.34.237-.5.352a35.533,35.533,0,0,1-4.44,2.536c-.188.1-.37.176-.546.261a20.018,20.018,0,0,1-4.276,1.419c-.218.049-.431.085-.643.115-2.081.309-3.706,0-4.537-1.1-.534-.692-2.566-2.7-2.39-3.8A7.151,7.151,0,0,1,239,117.6c.133-.152.279-.3.431-.461a90.636,90.636,0,0,1,8.917-7.279c3.937-3.033,8.353-6.788,11.647-7.965a6.18,6.18,0,0,1,.606-.188A5.72,5.72,0,0,1,261.42,101.54Z" transform="translate(-193.102 -74.646)"/><g class="d" transform="translate(45.492 41.998)"><path d="M240.116,126.44l.3.5,5.192,8.656c-.218.048-.431.085-.643.115l-4.98-8.322-.388-.607Z" transform="translate(-239.6 -126.44)"/></g><g class="d" transform="translate(50.454 40.554)"><path d="M248.3,124.06l5.35,8.917c-.188.1-.37.176-.546.261l-5.326-8.868Z" transform="translate(-247.78 -124.06)"/></g><g class="d" transform="translate(59.619 35.058)"><path d="M263.412,115l5.065,8.444-.467.406-5.12-8.541Z" transform="translate(-262.89 -115)"/></g><g class="d" transform="translate(55.355 37.612)"><path d="M256.388,119.21l5.387,8.972c-.164.121-.34.237-.5.352l-5.411-9.014Z" transform="translate(-255.86 -119.21)"/></g><g class="d" transform="translate(63.878 30.964)"><path d="M270.432,108.25l4.926,8.219c-.127.17-.267.334-.406.5l-5.041-8.407Z" transform="translate(-269.91 -108.25)"/></g><ellipse class="b" cx="16.202" cy="6.375" rx="16.202" ry="6.375" transform="translate(40.581 42.751) rotate(-37.76)"/><ellipse class="e" cx="12.823" cy="4.507" rx="12.823" ry="4.507" transform="translate(44.663 41.948) rotate(-37.76)"/><path class="b" d="M211.2,77.434c-.692,3.991-9.645,5.678-19.787,3.858s-17.791-6.509-17.082-10.5c.164-.928.449-4.307,1.4-4.98,3.148-2.22,10.464-.364,18.252,1.019,7.279,1.292,15.244,1.4,17.215,4.75C212.394,73.643,211.4,76.294,211.2,77.434Z" transform="translate(-168.413 -60.186)"/><path class="c" d="M211.2,71.633c1.213,2.754.249,4.4,0,5.829s-1.638,2.627-3.773,3.415c-.261.1-.534.188-.813.273a23.47,23.47,0,0,1-5.12.843,4.435,4.435,0,0,0-.746.042,41.691,41.691,0,0,1-6.114-.224l-.71-.091c-.819-.1-1.662-.224-2.505-.376s-1.662-.322-2.469-.51c-.231-.049-.461-.109-.692-.164a40.606,40.606,0,0,1-5.593-1.82c-.224-.085-.437-.182-.649-.267a23.093,23.093,0,0,1-4.513-2.554c-.212-.152-.406-.3-.607-.461-1.88-1.535-2.845-3.185-2.572-4.719.182-.995.328-4.246,1.4-4.98a7.905,7.905,0,0,1,4.416-.971h.728c3.64.121,8.329,1.134,13.115,1.984,5.641,1.007,12.247,1.887,15.8,3.791a6.664,6.664,0,0,1,.607.364,6.458,6.458,0,0,1,.813.594Z" transform="translate(-168.409 -60.232)"/><g class="d" transform="translate(8.477 3.849)"><path d="M182.753,63.75l-.194.637-3.373,11.125c-.212-.152-.406-.3-.607-.461l3.239-10.67.255-.831Z" transform="translate(-178.58 -63.55)"/></g><g class="d" transform="translate(13.597 6.943)"><path d="M191.145,68.862l-3.476,11.459c-.224-.085-.437-.182-.649-.267l3.458-11.4Z" transform="translate(-187.02 -68.65)"/></g><g class="d" transform="translate(25.504 10.54)"><path d="M210.654,74.786,207.36,85.638l-.71-.091,3.33-10.967Z" transform="translate(-206.65 -74.58)"/></g><g class="d" transform="translate(19.839 8.866)"><path d="M201.5,72.038,198,83.564c-.23-.049-.461-.109-.692-.164l3.518-11.58Z" transform="translate(-197.31 -71.82)"/></g><g class="d" transform="translate(32.329 11.019)"><path d="M221.855,75.57l-3.209,10.561a4.435,4.435,0,0,0-.746.042l3.282-10.8Z" transform="translate(-217.9 -75.37)"/></g><ellipse class="b" cx="7.34" cy="18.659" rx="7.34" ry="18.659" transform="translate(5.232 14.453) rotate(-79.91)"/><ellipse class="e" cx="5.186" cy="14.764" rx="5.186" ry="14.764" transform="translate(9.824 13.087) rotate(-79.91)"/></g><g transform="translate(13.743 59.665)"><path class="b" d="M231.636,253.629l-62.425,3.64a18.39,18.39,0,0,0-6.387,1.553l-67.805,30.33a5.678,5.678,0,0,0-3.276,6.345l11.2,52.986a5.732,5.732,0,0,0,8.189,3.87l66.926-33.411,61.8-2.068a5.356,5.356,0,0,0,5.15-6.175l-8.268-50.736C236.313,257.342,234.324,253.55,231.636,253.629Z" transform="translate(-73.576 -194.144)"/><path class="f" d="M231.636,253.629l-62.425,3.64a18.39,18.39,0,0,0-6.387,1.553l-67.805,30.33a5.678,5.678,0,0,0-3.276,6.345l11.2,52.986a5.732,5.732,0,0,0,8.189,3.87l66.926-33.411,61.8-2.068a5.356,5.356,0,0,0,5.15-6.175l-8.268-50.736C236.313,257.342,234.324,253.55,231.636,253.629Z" transform="translate(-73.576 -194.144)"/><rect class="b" width="44.554" height="86.737" transform="matrix(0.735, -0.678, 0.678, 0.735, 0.002, 55.183)"/><path class="g" d="M153.411,260.537l-32.762,30.2L61.87,226.962l21.5-19.817L94.632,196.76l1.874,2.038Z" transform="translate(-61.87 -171.772)"/><rect class="h" width="39.313" height="81.132" transform="matrix(0.735, -0.678, 0.678, 0.735, 4.065, 55.53)"/><ellipse class="b" cx="8.165" cy="10.239" rx="8.165" ry="10.239" transform="matrix(0.735, -0.678, 0.678, 0.735, 32.634, 69.573)"/><path class="f" d="M134.246,264.85,122.6,268.872,97.31,207.145l11.264-10.385,1.874,2.038Z" transform="translate(-75.812 -171.772)"/><rect class="b" width="44.554" height="86.737" transform="translate(18.815 15.187) rotate(-19.93)"/><rect class="g" width="44.554" height="86.737" transform="translate(18.815 15.187) rotate(-19.93)"/><rect class="h" width="39.313" height="81.132" transform="translate(22.426 17.078) rotate(-19.93)"/><ellipse class="b" cx="8.165" cy="10.239" rx="8.165" ry="10.239" transform="translate(43.353 41.068) rotate(-19.93)"/><path class="b" d="M233.59,257.179l-61.569,3.47a17.626,17.626,0,0,0-6.315,1.547L98.9,292.356a5.672,5.672,0,0,0-3.215,6.333l11.2,53.01a5.672,5.672,0,0,0,8.092,3.888l65.937-33.223,60.951-1.929a5.308,5.308,0,0,0,5.071-6.157l-8.292-50.73C238.213,260.9,236.247,257.107,233.59,257.179Z" transform="translate(-75.124 -195.541)"/><line class="i" y1="3.251" x2="52.828" transform="translate(99.403 71.138)"/><line class="i" x2="9.651" y2="44.33" transform="translate(93.076 75.754)"/><path class="j" d="M109.23,346.43l6.806,34.1S121.253,367,109.23,346.43Z" transform="translate(-80.502 -230.653)"/><path class="j" d="M110.7,330.724c.237.607,60.453-25.234,60.453-25.234a31.689,31.689,0,0,1-16.6,28.753C136.432,344.4,110.7,330.724,110.7,330.724Z" transform="translate(-81.08 -214.547)"/><ellipse class="b" cx="2.608" cy="2.608" rx="2.608" ry="2.608" transform="translate(67.01 111.968)"/><path class="c" d="M210.41,305.49s7.467,11.24,5.66,30.384" transform="translate(-120.306 -214.547)"/><g class="d" transform="translate(25.847 74.389)"><line class="k" y1="0.613" x2="1.389" transform="translate(0 27.382)"/><line class="l" y1="24.858" x2="56.231" transform="translate(4.27 1.25)"/><line class="k" y1="0.613" x2="1.383" transform="translate(61.945)"/></g><line class="i" y1="3.257" x2="52.828" transform="translate(101.174 81.098)"/><line class="i" y1="3.257" x2="52.828" transform="translate(103.552 93.527)"/></g><g transform="translate(135.886 31.596)"><path class="m" d="M285.886,169.56s-1.328,14.152-6.588,15.371a15.868,15.868,0,0,1-9.705-.971l-4.277-3.288-2.087,7.279s2.281,3.1,7.043.952c0,0,8.492,3.737,13.187,0s6.2-13.988,6.2-13.988Z" transform="translate(-263.23 -133.002)"/><path class="n" d="M305.97,139s-3.67-6.254-2-17.591,11.173-12.738,14.843-11.92,6.672,4.343,9.172,11.052,3.421,8.456,7.589,7.279,15.256-4.853,18.343-1.583A7.667,7.667,0,0,1,356,133.148s15.426-3.749,14.091,10.009-23.6,26.6-44.773,13.005S305.97,139,305.97,139Z" transform="translate(-279.086 -109.292)"/><path class="n" d="M304.64,213.146s-4.192,36.05-4.052,52.956,6.145,56.747,6.145,56.747h7.407s-.977-31.858-.837-42.759,2.093-28.935,2.093-28.935,2.372,16.208,5.168,21.934,18.307,25.993,29.068,32.283l5.029-4.616s-11.18-13.83-15.371-20.679-7.959-8.79-9.5-21.528,1.122-33.114-3.348-45.41Z" transform="translate(-277.925 -150.147)"/><path class="c" d="M322.493,260.99l-3.221-22.85a71.675,71.675,0,0,0,2.463,30.506Z" transform="translate(-285.023 -159.982)"/><path class="m" d="M313.23,397.007l.249,7.079,4.968.412.249-.661V396.51Z" transform="translate(-282.9 -222.285)"/><path class="b" d="M309.34,392.678l.455,2.651,8.529.206.54-3.185Z" transform="translate(-281.37 -220.649)"/><path class="b" d="M377.59,361.224l7.9-7.364,1.741,2.772-6.788,6.212Z" transform="translate(-308.22 -205.507)"/><path class="m" d="M383.87,363.423l5.217,4.392,3.348-3.937-4.283-4.428Z" transform="translate(-310.69 -207.706)"/><path class="n" d="M395.045,366.131l3.154,1.941a1.159,1.159,0,0,1,.261,1.753c-2.287,2.584-8.128,9.147-8.711,9.608-.722.607-1.6-.412-1.82-1.322a10.549,10.549,0,0,0,1.82-3.6,25.773,25.773,0,0,0,0-3.263A1.074,1.074,0,0,1,390,370.5l3.524-4.137a1.165,1.165,0,0,1,1.517-.231Z" transform="translate(-312.288 -210.262)"/><path class="n" d="M314.685,409.374l.655,3.64a1.159,1.159,0,0,1-1.134,1.365c-3.452,0-12.235.036-12.969-.085-.916-.152-.752-1.462-.212-2.226a10.261,10.261,0,0,0,3.882-1.062,26.2,26.2,0,0,0,2.426-2.159,1.086,1.086,0,0,1,.728-.309l5.429-.127A1.171,1.171,0,0,1,314.685,409.374Z" transform="translate(-277.926 -226.966)"/><path class="b" d="M325.664,170.271l7.57-5.314s-2.014-8.056-5-8.456-17.8-3.221-27.218,0c0,0-3.385.964-4.428,10.47l4.028,1.286s1.444,17.8,2.335,20.539h21.5S324.693,173.492,325.664,170.271Z" transform="translate(-276.354 -127.265)"/><path class="m" d="M339.177,176.128s2.869,8.189,3.379,12.593c0,0-6.818-2.718-8.577-3.961l-1.335-4.792-4.513-2.2-1.341,3.64,3.767,4.671s10.27,9.608,15.474,7.413-2.056-20.709-2.056-20.709Z" transform="translate(-288.235 -134.269)"/><path class="m" d="M313.879,117.734s-2.626,5.241-2.426,9.505,2.354,6.005,6.448,6.606c0,0,1.747,5.459-2.839,6.011-.352.042-.473,1.432-.449,1.656.121.886,1,1.371,1.82,1.577a12.313,12.313,0,0,0,2.627.291,6.121,6.121,0,0,0,4.9-2.178c.1-.115,1.019-1.292,1.019-1.292s-2.19-1.086-1.419-8.2a5.9,5.9,0,0,0,2.293-2.839,3.567,3.567,0,0,0,1.747-2.135c.328-1.419-.928-3.385-3.221-1.419,0,0-4.319-2.184-5.957-9.833A7.661,7.661,0,0,1,313.879,117.734Z" transform="translate(-282.197 -111.731)"/><path class="o" d="M316.443,131.122l.37-2.8-1.984,2.2A1.953,1.953,0,0,0,316.443,131.122Z" transform="translate(-283.53 -116.778)"/><path class="p" d="M319.39,135.659s2.093.322,3.1-1.019" transform="translate(-285.324 -119.264)"/><path class="q" d="M322.84,121.782a2.742,2.742,0,0,1,2.711.722" transform="translate(-286.681 -114.165)"/><path class="q" d="M315.733,120.835s-1.213-.188-1.753.5" transform="translate(-283.195 -113.824)"/><path class="r" d="M323.563,127.389c-.055.425-.328.734-.607.7s-.467-.406-.413-.831.328-.734.607-.7S323.618,126.965,323.563,127.389Z" transform="translate(-286.561 -116.084)"/><ellipse class="r" cx="0.77" cy="0.516" rx="0.77" ry="0.516" transform="translate(31.039 10.998) rotate(-82.6)"/><path class="r" d="M322.938,126.289l-.958-.419a.607.607,0,0,0,.958.419Z" transform="translate(-286.343 -115.814)"/><path class="r" d="M315.1,124.809l-.958-.419a.607.607,0,0,0,.958.419Z" transform="translate(-283.258 -115.232)"/><path class="b" d="M305.84,208.985v2.529l23.293.194-.625-3.009Z" transform="translate(-279.993 -148.4)"/><path class="s" d="M305.84,208.985v2.529l23.293.194-.625-3.009Z" transform="translate(-279.993 -148.4)"/></g><g transform="translate(109.496 62.945)"><path class="b" d="M272.246,177.931l-12.811,44.56a7.764,7.764,0,0,1-6.673,5.593,7.923,7.923,0,0,1-2.924-.267l-24.488-7.043a7.782,7.782,0,0,1-5.326-9.615l12.817-44.573a7.777,7.777,0,0,1,9.608-5.314l24.506,7.037A7.777,7.777,0,0,1,272.246,177.931Z" transform="translate(-219.724 -160.972)"/><path class="c" d="M272.246,177.931l-12.811,44.56a7.764,7.764,0,0,1-6.673,5.593,7.923,7.923,0,0,1-2.924-.267l-24.488-7.043a7.782,7.782,0,0,1-5.326-9.615l12.817-44.573a7.777,7.777,0,0,1,9.608-5.314l24.506,7.037A7.777,7.777,0,0,1,272.246,177.931Z" transform="translate(-219.724 -160.972)"/><path class="b" d="M270.117,178.8l-12.811,44.567a7.746,7.746,0,0,1-4.556,5.059,7.922,7.922,0,0,1-2.924-.267l-24.476-7.043a7.782,7.782,0,0,1-5.326-9.614l12.817-44.573a5.547,5.547,0,0,1,7.479-4.78l24.458,7.067A7.777,7.777,0,0,1,270.117,178.8Z" transform="translate(-219.724 -161.316)"/><path class="g" d="M270.117,178.8l-12.811,44.567a7.746,7.746,0,0,1-4.556,5.059,7.922,7.922,0,0,1-2.924-.267l-24.476-7.043a7.782,7.782,0,0,1-5.326-9.614l12.817-44.573a5.547,5.547,0,0,1,7.479-4.78l24.458,7.067A7.777,7.777,0,0,1,270.117,178.8Z" transform="translate(-219.724 -161.316)"/><rect class="t" width="2.724" height="34.782" transform="translate(13.33 20.537) rotate(15.74)"/><path class="t" d="M234.97,230.794l-2.62-.758,9.433-33.466,2.614.752Z" transform="translate(-224.691 -174.977)"/><path class="t" d="M241.25,232.6l-2.62-.752,9.432-33.466,2.621.752Z" transform="translate(-227.161 -175.689)"/><rect class="u" width="2.724" height="34.782" transform="translate(36.154 27.09) rotate(15.74)"/><path class="t" d="M279.873,189.586l-1.274,4.543-1.553-.437a2.954,2.954,0,0,1-2.038-3.64l.849-3.033,3.136.9A1.335,1.335,0,0,1,279.873,189.586Z" transform="translate(-241.429 -171.22)"/><path class="t" d="M279.836,183.448l-3.136-.9.94-3.324a2.948,2.948,0,0,1,3.64-2.038l1.614.455-1.407,4.9a1.316,1.316,0,0,1-1.65.91Z" transform="translate(-242.138 -167.308)"/><path class="t" d="M284.85,189.964l3.154.9-.837,2.966a2.936,2.936,0,0,1-3.64,2.038l-1.638-.461,1.3-4.537a1.329,1.329,0,0,1,1.656-.91Z" transform="translate(-244.18 -172.356)"/><path class="t" d="M290.524,182.36l-.952,3.373-3.154-.9a1.334,1.334,0,0,1-.91-1.644l1.407-4.9,1.571.443a2.942,2.942,0,0,1,2.038,3.627Z" transform="translate(-245.583 -167.785)"/></g></svg>