<svg xmlns="http://www.w3.org/2000/svg" width="231.741" height="213.625" viewBox="0 0 231.741 213.625"><defs><style>.a{opacity:0.72;mix-blend-mode:multiply;isolation:isolate;}.b{fill:#f66145;}.c{opacity:0.36;}.d{fill:#7e0a07;}.e{fill:#e4897b;}.f{fill:#e54425;}.g,.j,.l,.n,.o{fill:#fff;}.g{opacity:0.5;}.h,.o{opacity:0.2;}.i{fill:#263238;}.j{opacity:0.6;}.k{fill:#de5753;}.m{fill:none;stroke:#263238;stroke-linecap:round;stroke-linejoin:round;stroke-width:6px;}.n,.p{opacity:0.4;}</style></defs><g transform="translate(-60.729 -90.787)"><g class="a" transform="translate(73.037 90.787)"><path class="b" d="M224.788,161.333c1.208.437,2.421.869,3.64,1.274,9.931,3.323,21.458,5.056,30.4-.394,13.478-8.2,14.549-27.164,9.21-40.407-5.93-14.708-17.84-26.634-31.613-34.2-22.917-12.587-51.338-13.948-75.9-4.952-21.289,7.827-39.669,23.77-52.257,42.446-17.1,25.366-23.1,60.92-4.329,87.04q1.049,1.47,2.186,2.859c4.968,6.012,11.92,11.407,19.764,13.533,18.692,5.067,31.455-10.991,34.237-27.754,1.459-8.745,1.957-17.878,5.662-25.956a35.951,35.951,0,0,1,32.482-20.48C207.5,154.49,216.1,158.185,224.788,161.333Z" transform="translate(-92.377 -76.864)"/></g><g class="c" transform="translate(60.729 289.738)"><ellipse class="d" cx="115.87" cy="7.337" rx="115.87" ry="7.337" transform="translate(0 0)"/></g><g transform="translate(85.151 95.515)"><g transform="translate(0 0)"><path class="e" d="M200.705,208.381l-12.8,1.141-5.133-2.9s-16.463-9.171-20.741-12.068c-1.3-.888-2.508-2.819-3.552-5.088a51.237,51.237,0,0,1-2.256-5.982c-.292-.914-.551-1.789-.771-2.593-.493-1.731-.8-3.027-.881-3.377h0a.317.317,0,0,0,0-.084h.032l4.057-1.3,3.39-1.076s.156.8.421,2.029l.233,1.082c.071.311.143.648.22.985.856,3.772,2.171,8.919,3.124,9.761,1.536,1.355,20.851,14.518,21.538,14.862s6.838,0,6.838,0Z" transform="translate(-119.881 -130.325)"/><path class="f" d="M153.615,150.68c5.9-.091,9.651,18.187,9.651,18.187l-7.778,3.889a24.9,24.9,0,0,1-3.338-12.587C152.331,153.156,153.615,150.68,153.615,150.68Z" transform="translate(-119.029 -121.747)"/><path class="g" d="M153.615,150.68c5.9-.091,9.651,18.187,9.651,18.187l-7.778,3.889a24.9,24.9,0,0,1-3.338-12.587C152.331,153.156,153.615,150.68,153.615,150.68Z" transform="translate(-119.029 -121.747)"/><path class="f" d="M165.014,178.407l-2.1,1.361-2.742,1.776-3.941,2.547-.706.46-.856-2.6.791-.428.519-.285,3.6-1.964,2.878-1.575,1.439-.784.253-.136Z" transform="translate(-119.916 -130.931)"/><path class="h" d="M160.473,181.371a8.374,8.374,0,0,1-2.035,5.522,51.237,51.237,0,0,1-2.256-5.982l-.706.46-.856-2.593.791-.428c-.493-1.731-.8-3.027-.881-3.377h0v-.1l.933-7.13a34.73,34.73,0,0,1,3.124,5.833c.337.8.648,1.646.933,2.528q.149.454.272.933c.123.441.227.888.318,1.335a16.851,16.851,0,0,1,.363,3Z" transform="translate(-119.867 -127.75)"/><path class="e" d="M153.05,403.009l5.425.577,1.018-11.7-5.425-.577Z" transform="translate(-119.346 -206.414)"/><path class="e" d="M111.3,402.142h5.25l.434-12.172h-5.256Z" transform="translate(-104.656 -205.942)"/><path class="i" d="M116.249,407.81h-6.384a.467.467,0,0,0-.447.363l-1.037,4.68a.771.771,0,0,0,.6.92.507.507,0,0,0,.169,0c2.068,0,3.571-.156,6.164-.156,1.6,0,6.423.162,8.627.162s2.5-2.178,1.588-2.379c-4.051-.882-7.13-2.107-8.426-3.241A1.3,1.3,0,0,0,116.249,407.81Z" transform="translate(-103.623 -212.219)"/><path class="f" d="M121.037,408.319a.13.13,0,0,1-.1-.11.117.117,0,0,1,.058-.117c.188-.123,1.886-1.167,2.469-.862a.356.356,0,0,1,.214.344.745.745,0,0,1-.259.648,1.562,1.562,0,0,1-1.011.272,6.111,6.111,0,0,1-1.374-.175Zm.356-.175a2.534,2.534,0,0,0,1.873-.1.525.525,0,0,0,.168-.447c0-.1-.045-.143-.084-.143a.259.259,0,0,0-.156-.032,5.062,5.062,0,0,0-1.8.719Z" transform="translate(-108.048 -211.996)"/><path class="f" d="M120.968,407.719a.136.136,0,0,1-.058-.117c0-.071.136-1.582.745-2.074a.648.648,0,0,1,.525-.162.408.408,0,0,1,.4.324c.1.557-.946,1.711-1.484,2.009h-.058a.129.129,0,0,1-.071.019Zm.843-2.048a3,3,0,0,0-.648,1.646c.544-.408,1.212-1.3,1.147-1.627,0-.032,0-.123-.181-.123h-.058a.454.454,0,0,0-.24.091Z" transform="translate(-108.037 -211.358)"/><path class="i" d="M158.019,407.56h-6.384a.46.46,0,0,0-.447.357l-1.037,4.68a.778.778,0,0,0,.6.92h.175c2.061-.039,3.565-.162,6.164-.162,1.594,0,6.417.169,8.62.169s2.5-2.184,1.594-2.385c-4.051-.881-7.13-2.1-8.426-3.241A1.3,1.3,0,0,0,158.019,407.56Z" transform="translate(-118.32 -212.131)"/><path class="f" d="M162.807,408.059a.13.13,0,0,1-.1-.11.11.11,0,0,1,.065-.117c.188-.123,1.886-1.167,2.463-.862a.37.37,0,0,1,.214.344.739.739,0,0,1-.259.648,1.6,1.6,0,0,1-1,.3A6.164,6.164,0,0,1,162.807,408.059Zm.356-.175a2.593,2.593,0,0,0,1.873-.091.519.519,0,0,0,.169-.447c0-.1-.045-.149-.078-.149a.279.279,0,0,0-.162-.032A5.186,5.186,0,0,0,163.163,407.884Z" transform="translate(-122.744 -211.904)"/><path class="f" d="M162.775,407.439a.136.136,0,0,1-.065-.11c0-.078.136-1.588.745-2.081a.648.648,0,0,1,.525-.162.408.408,0,0,1,.4.331c.11.551-.94,1.711-1.484,2h-.058a.123.123,0,0,1-.065.02Zm.843-2.048a2.943,2.943,0,0,0-.648,1.646c.538-.408,1.206-1.3,1.141-1.62,0-.039,0-.13-.181-.13h-.058a.435.435,0,0,0-.253.1Z" transform="translate(-122.745 -211.259)"/><path class="h" d="M154.331,391.31l5.425.577-.531,6.034-5.425-.577Z" transform="translate(-119.61 -206.414)"/><path class="h" d="M111.837,389.98h5.256l-.227,6.281H111.61Z" transform="translate(-104.765 -205.946)"/><path class="f" d="M112.95,225.22h27.87c2.651,14.486,10.954,65.735,5,111.4l-9.443-1.173s.875-60.621-7.46-83.027c-.959,11.991-2.1,24.753-3.085,31.545-2.4,16.709-7.6,53.245-7.6,53.245H108.62s1.944-34.961,2.871-51.391C112.483,267.978,112.917,228.882,112.95,225.22Z" transform="translate(-103.713 -147.974)"/><path class="h" d="M140,261.793a74.618,74.618,0,0,1,3.118,12.068c.778-10.675-2.34-21.992-2.34-21.992Z" transform="translate(-114.754 -157.351)"/><path class="f" d="M161.376,397.781l-11.686-1.737.357-3.234L162.2,394.4Z" transform="translate(-118.164 -206.942)"/><path class="j" d="M161.376,397.781l-11.686-1.737.357-3.234L162.2,394.4Z" transform="translate(-118.164 -206.942)"/><path class="f" d="M119.076,396.15H107.74v-3.39l11.764-.22Z" transform="translate(-103.404 -206.847)"/><path class="j" d="M119.076,396.15H107.74v-3.39l11.764-.22Z" transform="translate(-103.404 -206.847)"/><path class="i" d="M115.206,229.554l-.026-4.038,28.428-1.756.2,3.915Z" transform="translate(-106.021 -147.461)"/><rect class="f" width="1.283" height="5.918" transform="translate(15.096 77.032)"/><rect class="f" width="1.283" height="5.918" transform="translate(34.745 75.159) rotate(-4.17)"/><path class="f" d="M140.577,197.981l-28.4,2.1c0-2.489-.065-5.263-.253-8.193-.35-5.412-1.018-11.336-1.763-16.891-1.581-11.8-3.519-21.933-3.519-21.933,13.222-3.338,30.962-2.469,30.962-2.469C142.21,167.861,140.577,197.981,140.577,197.981Z" transform="translate(-103.017 -121.681)"/><path class="j" d="M140.577,197.981l-28.4,2.1c0-2.489-.065-5.263-.253-8.193-.35-5.412-1.018-11.336-1.763-16.891-1.581-11.8-3.519-21.933-3.519-21.933,13.222-3.338,30.962-2.469,30.962-2.469C142.21,167.861,140.577,197.981,140.577,197.981Z" transform="translate(-103.017 -121.681)"/><path class="e" d="M122.21,144.4c2.593,2.327,8.834,1.471,8.834,1.471s3.889-1.076,3.092-2.3c-2.307-.376-3.422-1.452-3.889-2.832a6.533,6.533,0,0,1-.233-2.631,12.527,12.527,0,0,1,.194-1.471l-7.778-5.743C123.474,134.682,124.718,141.649,122.21,144.4Z" transform="translate(-108.495 -114.784)"/><path class="h" d="M125.36,136.52a6.568,6.568,0,0,0,6,6.2,6.534,6.534,0,0,1-.233-2.631Z" transform="translate(-109.603 -116.765)"/><path class="i" d="M142.425,113.415c1.886,1.789,1.1,7.24-2.742,10.027s-3.843-10.694-3.843-10.694S141.226,112.274,142.425,113.415Z" transform="translate(-113.291 -108.366)"/><path class="e" d="M123.722,128.567a6.572,6.572,0,0,0,7.551,2.547,7.311,7.311,0,0,0,4.174-3.4,7.7,7.7,0,0,0,.35-.694c1.893-4.4,2.476-12.179-2.184-15.069a7.13,7.13,0,0,0-9.819,2.243,7.214,7.214,0,0,0-1.069,3.137C122.153,122.488,121.57,125.508,123.722,128.567Z" transform="translate(-108.49 -107.736)"/><path class="i" d="M134.636,124.735c-.1.408.091.791.369.836s.551-.259.648-.648-.1-.791-.363-.836S134.714,124.314,134.636,124.735Z" transform="translate(-112.858 -112.389)"/><path class="i" d="M141.926,125.976c-.1.408.1.8.363.843s.557-.259.648-.648-.1-.8-.369-.843S142,125.58,141.926,125.976Z" transform="translate(-115.423 -112.825)"/><path class="k" d="M139.2,126.25a14.991,14.991,0,0,0,1.387,3.889,2.444,2.444,0,0,1-2.074.032Z" transform="translate(-114.23 -113.151)"/><path class="i" d="M132.706,121.726a.285.285,0,0,0,.259-.052,1.99,1.99,0,0,1,1.711-.557.246.246,0,0,0,.3-.182.253.253,0,0,0-.181-.3h0a2.489,2.489,0,0,0-2.171.648.253.253,0,0,0,0,.35h0a.318.318,0,0,0,.084.091Z" transform="translate(-112.134 -111.162)"/><path class="i" d="M135.2,134.476h0a3.792,3.792,0,0,1-3.092-1.685.131.131,0,0,1,.22-.143h0a3.649,3.649,0,0,0,2.878,1.549.13.13,0,0,1,.13.123h0a.13.13,0,0,1-.123.123Z" transform="translate(-111.971 -115.382)"/><path class="i" d="M144.671,123.289a.279.279,0,0,0,.143.039.259.259,0,0,0,.175-.3h0a2.45,2.45,0,0,0-1.53-1.679.246.246,0,0,0-.3.162h0a.253.253,0,0,0,.162.311h0a2,2,0,0,1,1.193,1.348A.246.246,0,0,0,144.671,123.289Z" transform="translate(-115.861 -111.422)"/><path class="i" d="M126.71,111.929v2.307a1.711,1.711,0,0,0-1.115,2.035c.5,2.009-.946,4.848-2.56,5.833,0,0,.052-.836-.648-.726s-1.056,4.459.058,6.682c0,0-1.841-2.113-2.45-6.793-.57-4.33-.272-7.843.784-9.359Z" transform="translate(-107.615 -108.106)"/><path class="e" d="M118.393,125.1a4.965,4.965,0,0,0,2.372,2.949c1.53.823,2.677-.46,2.593-2.1-.1-1.465-1.011-3.694-2.709-3.824A2.219,2.219,0,0,0,118.393,125.1Z" transform="translate(-107.115 -111.698)"/><path class="i" d="M119.587,113.792s-1.6-3.843,2.593-6.663,14.143.467,14.843,2.755S130.2,116.326,119.587,113.792Z" transform="translate(-107.466 -106.04)"/><path class="f" d="M122.158,147.35l6.345,3.474.869-4.744,4.446,2.891v6.06l-4.706-2.806-3.306,4.952-6.527-7.168Z" transform="translate(-107.464 -120.129)"/><rect class="l" width="6.507" height="4.887" rx="1.16" transform="matrix(0.998, -0.055, 0.055, 0.998, 23.359, 76.782)"/><path class="g" d="M122.158,147.35l6.345,3.474.869-4.744,4.446,2.891v6.06l-4.706-2.806-3.306,4.952-6.527-7.168Z" transform="translate(-107.464 -120.129)"/><path class="h" d="M124.022,203.97c-1.886,2.839-7.92,2.819-10.189,1.251-.35-5.412-1.018-11.336-1.763-16.891Z" transform="translate(-104.927 -134.994)"/><path class="e" d="M111.134,178.74s1.342,8.737,2.657,10.442,28.518,16.58,28.518,16.58l9.4-.681,4.323,4.958s-12.529,1.944-13.9,1.569a13.189,13.189,0,0,1-2.418-.933s-28.518-11.232-30.917-13.8-5.127-15.743-5.127-15.743Z" transform="translate(-101.975 -131.62)"/><path class="f" d="M104.673,154.469c4.978-1.037,7.551,19.619,7.551,19.619l-10.182,2.593S98.548,155.753,104.673,154.469Z" transform="translate(-101.05 -123.067)"/><path class="g" d="M104.673,154.469c4.978-1.037,7.551,19.619,7.551,19.619l-10.182,2.593S98.548,155.753,104.673,154.469Z" transform="translate(-101.05 -123.067)"/><path class="f" d="M101.66,186.515l11.42-2.735v1.964l-10.908,3.163Z" transform="translate(-101.264 -133.393)"/></g></g><g transform="translate(118.174 149.855)"><path class="m" d="M158.481,330.517V241.669a18.8,18.8,0,0,0-3.379-10.756L152,226.47h55.157l3.1,4.446a18.8,18.8,0,0,1,3.377,10.753v88.005" transform="translate(-152 -202.754)"/><circle class="i" cx="5.71" cy="5.71" r="5.71" transform="translate(117.988 135.819)"/><path class="n" d="M344.157,406.685a2.852,2.852,0,1,0-.838,2.019A2.858,2.858,0,0,0,344.157,406.685Z" transform="translate(-217.6 -265.156)"/><path class="i" d="M338.856,404.423h0A2.178,2.178,0,0,1,336.814,403l-3.364-9.217h7.577v8.471A2.171,2.171,0,0,1,338.856,404.423Z" transform="translate(-215.844 -261.623)"/><path class="o" d="M338.856,404.423h0A2.178,2.178,0,0,1,336.814,403l-3.364-9.217h7.577v8.471A2.171,2.171,0,0,1,338.856,404.423Z" transform="translate(-215.844 -261.623)"/><circle class="i" cx="5.71" cy="5.71" r="5.71" transform="translate(54.47 135.819)"/><path class="n" d="M246.157,406.685a2.852,2.852,0,1,0-.838,2.019A2.858,2.858,0,0,0,246.157,406.685Z" transform="translate(-183.118 -265.156)"/><path class="i" d="M240.856,404.423h0A2.178,2.178,0,0,1,238.814,403l-3.364-9.217h7.577v8.471a2.171,2.171,0,0,1-2.171,2.171Z" transform="translate(-181.362 -261.623)"/><path class="o" d="M240.856,404.423h0A2.178,2.178,0,0,1,238.814,403l-3.364-9.217h7.577v8.471a2.171,2.171,0,0,1-2.171,2.171Z" transform="translate(-181.362 -261.623)"/><path class="i" d="M286.732,383.53v5.393a1.821,1.821,0,0,1-1.821,1.821H157.271a1.821,1.821,0,0,1-1.821-1.821V383.53Z" transform="translate(-153.214 -258.017)"/><path class="n" d="M286.732,383.53v5.393a1.821,1.821,0,0,1-1.821,1.821H157.271a1.821,1.821,0,0,1-1.821-1.821V383.53Z" transform="translate(-153.214 -258.017)"/><path class="o" d="M241.362,383.53v5.393a1.821,1.821,0,0,1-1.821,1.821H157.271a1.821,1.821,0,0,1-1.821-1.821V383.53Z" transform="translate(-153.214 -258.017)"/><circle class="i" cx="5.71" cy="5.71" r="5.71" transform="translate(71.97 135.819)"/><path class="j" d="M273.157,406.685a2.852,2.852,0,1,0-.838,2.019A2.858,2.858,0,0,0,273.157,406.685Z" transform="translate(-192.618 -265.156)"/><path class="i" d="M267.856,404.423h0A2.178,2.178,0,0,1,265.814,403l-3.364-9.217h7.577v8.471A2.171,2.171,0,0,1,267.856,404.423Z" transform="translate(-190.862 -261.623)"/><path class="n" d="M267.856,404.423h0A2.178,2.178,0,0,1,265.814,403l-3.364-9.217h7.577v8.471A2.171,2.171,0,0,1,267.856,404.423Z" transform="translate(-190.862 -261.623)"/><circle class="i" cx="5.71" cy="5.71" r="5.71" transform="translate(8.452 135.819)"/><path class="j" d="M175.157,406.685a2.852,2.852,0,1,0-.838,2.019,2.858,2.858,0,0,0,.838-2.019Z" transform="translate(-158.136 -265.156)"/><path class="i" d="M169.856,404.423h0A2.178,2.178,0,0,1,167.814,403l-3.364-9.217h7.577v8.471A2.171,2.171,0,0,1,169.856,404.423Z" transform="translate(-156.381 -261.623)"/><path class="n" d="M169.856,404.423h0A2.178,2.178,0,0,1,167.814,403l-3.364-9.217h7.577v8.471A2.171,2.171,0,0,1,169.856,404.423Z" transform="translate(-156.381 -261.623)"/><rect class="f" width="60.44" height="41.838" transform="translate(18.044 83.676)"/><rect class="n" width="60.44" height="41.838" transform="translate(18.044 83.676)"/><rect class="o" width="28.045" height="41.838" transform="translate(18.044 83.676)"/><rect class="h" width="4.699" height="5.982" rx="0.92" transform="translate(39.336 116.666)"/><rect class="h" width="4.699" height="5.982" rx="0.92" transform="translate(33.01 116.666)"/><rect class="p" width="3.416" height="4.362" transform="translate(62.073 83.676)"/><rect class="h" width="23.528" height="5.47" transform="translate(51.301 101.538)"/><rect class="h" width="8.043" height="8.043" transform="translate(19.872 85.853)"/><rect class="f" width="60.44" height="41.838" transform="translate(24.215 41.838)"/><rect class="p" width="60.44" height="41.838" transform="translate(24.215 41.838)"/><rect class="o" width="28.045" height="41.838" transform="translate(24.215 41.838)"/><rect class="h" width="4.699" height="5.982" rx="0.92" transform="translate(45.513 74.828)"/><rect class="h" width="4.699" height="5.982" rx="0.92" transform="translate(39.187 74.828)"/><rect class="p" width="3.416" height="4.362" transform="translate(68.243 41.838)"/><rect class="h" width="23.528" height="5.47" transform="translate(57.471 59.701)"/><rect class="h" width="8.043" height="8.043" transform="translate(26.049 44.016)"/><rect class="f" width="60.44" height="41.838" transform="translate(61.211 41.838)"/><rect class="n" width="60.44" height="41.838" transform="translate(61.211 41.838)"/><rect class="o" width="28.045" height="41.838" transform="translate(61.211 41.838)"/><rect class="h" width="4.699" height="5.982" rx="0.92" transform="translate(82.509 74.828)"/><rect class="h" width="4.699" height="5.982" rx="0.92" transform="translate(76.183 74.828)"/><rect class="p" width="3.416" height="4.362" transform="translate(105.239 41.838)"/><rect class="h" width="23.528" height="5.47" transform="translate(94.467 59.701)"/><rect class="h" width="8.043" height="8.043" transform="translate(63.045 44.016)"/><rect class="f" width="60.44" height="41.838" transform="translate(40.308 0)"/><rect class="o" width="28.045" height="41.838" transform="translate(40.308 0)"/><rect class="h" width="4.699" height="5.982" rx="0.92" transform="translate(61.6 32.991)"/><rect class="h" width="4.699" height="5.982" rx="0.92" transform="translate(55.28 32.991)"/><rect class="p" width="3.416" height="4.362" transform="translate(84.337 0)"/><rect class="h" width="23.528" height="5.47" transform="translate(73.564 17.863)"/><rect class="h" width="8.043" height="8.043" transform="translate(42.136 2.178)"/><rect class="i" width="60.44" height="41.838" transform="translate(56.505 83.676)"/><rect class="o" width="60.44" height="41.838" transform="translate(56.505 83.676)"/><rect class="o" width="28.045" height="41.838" transform="translate(56.505 83.676)"/><rect class="h" width="4.699" height="5.982" rx="0.92" transform="translate(77.797 116.666)"/><rect class="h" width="4.699" height="5.982" rx="0.92" transform="translate(71.471 116.666)"/><rect class="p" width="3.416" height="4.362" transform="translate(100.534 83.676)"/><rect class="h" width="23.528" height="5.47" transform="translate(89.762 101.538)"/><rect class="h" width="8.043" height="8.043" transform="translate(58.333 85.853)"/></g></g></svg>