<svg xmlns="http://www.w3.org/2000/svg" width="42.162" height="42.162" viewBox="0 0 42.162 42.162"><path d="M7.1,88.851a.881.881,0,1,1,.626-.256A.882.882,0,0,1,7.1,88.851Z" transform="translate(-3.598 -50.369)"/><path d="M8.152,79.375H0v-2.11H6.041V66.449H0v-2.11H8.152Z" transform="translate(0 -37.212)"/><path d="M33.774,74.829H22.659v-10.7l.125-.233a6.937,6.937,0,0,1,2.955-2.784,9.153,9.153,0,0,1,7.492-.2,21.933,21.933,0,0,1,2.243,1.069c.6.313,1.163.61,1.746.857a5.708,5.708,0,0,0,.753.218,3.381,3.381,0,0,1,2.588,1.652A4.965,4.965,0,0,1,40.879,67l5.306-.079,2.756-3.052a2.883,2.883,0,0,1,4.287,3.856l-4.153,4.633Zm-9-2.11H33.6L48,70.393l3.655-4.078a.772.772,0,0,0-1.149-1.033l-3.372,3.734-13.066.193-.031-2.11,4.726-.07a3.381,3.381,0,0,0-.135-1.475c-.08-.183-.784-.357-1.161-.45a7.148,7.148,0,0,1-1.07-.324c-.665-.281-1.3-.612-1.905-.932a20.054,20.054,0,0,0-2.027-.97,7.048,7.048,0,0,0-5.759.1,5.061,5.061,0,0,0-1.938,1.692Z" transform="translate(-13.105 -34.82)"/><path d="M57.605,4.71V2.466L50.884,0,37.9,6.674H26.7V22.38H52.419V17.932c.35.013.7.025,1.033.051.211.013.422.021.632.021a10.635,10.635,0,0,0,3.521-.628V15.119l-.03.013a8.67,8.67,0,0,1-3.984.746c-.384-.025-.772-.042-1.172-.055-.675-.017-1.37-.013-2.108.013-1.016.034-2.1.114-3.293.236l-1.3.135a1.233,1.233,0,0,1-.337-2.441l4.916-.852a.016.016,0,0,0,.013,0,3.1,3.1,0,0,0,2.108-1.417,3.145,3.145,0,0,0-2.656-4.819H42.511L51.028,2.3ZM49.763,8.782a1,1,0,0,1,.548.156,1.039,1.039,0,0,1,0,1.758,1.01,1.01,0,0,1-.371.139l-4.916.852a3.34,3.34,0,0,0,.569,6.632,3.06,3.06,0,0,0,.337-.017s3.432-.32,4.381-.354v2.323h-21.5V8.782Z" transform="translate(-15.443)"/><rect width="2.108" height="2.108" transform="translate(23.2 13.473)"/></svg>