<svg xmlns="http://www.w3.org/2000/svg" width="38.424" height="42.124" viewBox="0 0 38.424 42.124"><g transform="translate(-22.487)"><g transform="translate(38 9.945)"><g transform="translate(0)"><path d="M215.217,120.969a1.233,1.233,0,0,0-1.344.267l-2.466,2.466a1.233,1.233,0,0,0,1.743,1.744l.361-.361v6.969a1.233,1.233,0,0,0,2.466,0v-9.945A1.233,1.233,0,0,0,215.217,120.969Z" transform="translate(-211.047 -120.875)"/></g></g><g transform="translate(22.487)"><g transform="translate(0)"><path d="M60.8,36.2,55.355,24.533a16.027,16.027,0,1,0-27.312,0L22.6,36.2a1.233,1.233,0,0,0,1.539,1.679l5.395-1.964L31.5,41.313a1.233,1.233,0,0,0,2.276.1l4.464-9.573a15.983,15.983,0,0,0,6.919,0l4.464,9.573a1.233,1.233,0,0,0,2.276-.1l1.964-5.395,5.395,1.964A1.233,1.233,0,0,0,60.8,36.2Zm-28,1.47-1.367-3.757a1.234,1.234,0,0,0-1.58-.736L26.1,34.546l3.616-7.756a16.107,16.107,0,0,0,6.147,4.322Zm8.9-7.92A13.644,13.644,0,1,1,55.26,16.109,13.618,13.618,0,0,1,41.7,29.753Zm11.848,3.426a1.234,1.234,0,0,0-1.58.736L50.6,37.672l-3.06-6.561a16.109,16.109,0,0,0,6.147-4.322L57.3,34.546Z" transform="translate(-22.487)"/></g></g><g transform="translate(30.603 5.014)"><g transform="translate(0)"><path d="M132.234,60.938a11.137,11.137,0,1,0,11.1,11.1A11.108,11.108,0,0,0,132.234,60.938Zm0,19.808a8.671,8.671,0,1,1,8.63-8.712A8.681,8.681,0,0,1,132.234,80.746Z" transform="translate(-121.138 -60.938)"/></g></g></g></svg>