<svg xmlns="http://www.w3.org/2000/svg" width="42.791" height="25.269" viewBox="0 0 42.791 25.269"><path d="M52.515,32.17l-1.982-4.594a4.537,4.537,0,0,0-4.189-2.748h-3.2V23.657A1.759,1.759,0,0,0,41.389,21.9H19.048a1.163,1.163,0,0,0-1.171,1.171,1.192,1.192,0,0,0,1.171,1.171H40.713V32.89a1.923,1.923,0,0,0,1.937,1.937h7.792v5.45a.4.4,0,0,1-.405.405H48.6a4.334,4.334,0,0,0-3.739-2.162,4.431,4.431,0,0,0-3.739,2.162H29.092a4.334,4.334,0,0,0-3.739-2.162,4.431,4.431,0,0,0-3.739,2.162H17.471a1.171,1.171,0,1,0,0,2.342H21.03a4.328,4.328,0,0,0,8.648,0H40.533a4.328,4.328,0,0,0,8.648,0h.946a2.759,2.759,0,0,0,2.748-2.748V33.972A5.136,5.136,0,0,0,52.515,32.17ZM25.354,44.827a1.982,1.982,0,1,1,1.982-1.982A2,2,0,0,1,25.354,44.827Zm19.5,0a1.982,1.982,0,1,1,1.982-1.982A2,2,0,0,1,44.857,44.827ZM43.1,27.215h3.2a2.11,2.11,0,0,1,1.982,1.306l1.712,3.964H43.1Z" transform="translate(-10.084 -21.9)"/><path d="M13.471,35.142h8.288a1.171,1.171,0,1,0,0-2.342H13.471A1.163,1.163,0,0,0,12.3,33.971,1.192,1.192,0,0,0,13.471,35.142Z" transform="translate(-7.886 -27.89)"/><path d="M8.571,45.142h8.288a1.171,1.171,0,1,0,0-2.342H8.571A1.163,1.163,0,0,0,7.4,43.971,1.192,1.192,0,0,0,8.571,45.142Z" transform="translate(-5.193 -33.386)"/><path d="M13.175,53.971A1.163,1.163,0,0,0,12,52.8H3.671a1.171,1.171,0,0,0,0,2.342h8.288A1.147,1.147,0,0,0,13.175,53.971Z" transform="translate(-2.5 -38.882)"/></svg>