<svg xmlns="http://www.w3.org/2000/svg" width="18.001" height="18.034" viewBox="0 0 18.001 18.034"><defs><style>.a{fill:none;stroke:#fff;stroke-linecap:round;stroke-linejoin:round;stroke-width:2px;}</style></defs><path class="a" d="M19.167,15v2.413a1.609,1.609,0,0,1-1.754,1.609,15.921,15.921,0,0,1-6.943-2.47,15.687,15.687,0,0,1-4.827-4.827,15.921,15.921,0,0,1-2.47-6.975A1.609,1.609,0,0,1,4.775,3H7.189A1.609,1.609,0,0,1,8.8,4.384a10.329,10.329,0,0,0,.563,2.261A1.609,1.609,0,0,1,9,8.342L7.977,9.363A12.872,12.872,0,0,0,12.8,14.19l1.022-1.022a1.609,1.609,0,0,1,1.7-.362,10.329,10.329,0,0,0,2.261.563A1.609,1.609,0,0,1,19.167,15Z" transform="translate(-2.167 -2)"/></svg>