<svg xmlns="http://www.w3.org/2000/svg" width="263.654" height="216.528" viewBox="0 0 263.654 216.528"><defs><style>.a,.h{fill:#fff;}.a{opacity:0.39;}.b{fill:#4bed7a;}.c{opacity:0.5;}.d{opacity:0.4;}.e{opacity:0.3;}.f{fill:#37474f;}.g{fill:#263238;}.h{opacity:0.75;}.i{opacity:0.15;}.j{opacity:0.1;}.k{fill:#ffa8a7;}.l{fill:#455a64;}.m{fill:#f28f8f;}.n{fill:#b16668;}</style></defs><g transform="translate(-8.351 -156.001)"><g transform="matrix(0.985, -0.174, 0.174, 0.985, 8.351, 213.88)"><path class="a" d="M147.02,56.235C111.828,39.15,39.139-38.2,6.814,23.5c-27.051,51.63,32.778,100.063,68.6,117.782,46.6,23.058,115.084,13.953,151.952-29.633,15.855-18.767,21.576-45.3-6.083-50.239-9.332-1.67-25.174,4.414-35.723,3.883C172.039,64.615,158.8,61.949,147.02,56.235Z"/></g><g transform="translate(28.887 229.859)"><g transform="translate(0 0)"><path class="b" d="M260.246,356.909l-73.277,42.3a7.866,7.866,0,0,1-7.64.138L31.809,314.171a8.8,8.8,0,0,1-4.209-6.7c0-2.341,1.883-5.358,4.2-6.7L104.809,258.6a9.32,9.32,0,0,1,8.411,0l147.026,84.9c2.326,1.345,4.209,4.362,4.209,6.7A8.8,8.8,0,0,1,260.246,356.909Z" transform="translate(-27.6 -257.601)"/><path class="c" d="M104.809,258.627,31.8,300.791c-2.319,1.345-4.209,4.362-4.2,6.7a8.83,8.83,0,0,0,4.2,6.7l147.527,85.162a8.047,8.047,0,0,0,3.635.909V298.908l-69.787-40.28a9.32,9.32,0,0,0-8.367,0Z" transform="translate(-27.6 -257.61)"/><path class="d" d="M245.334,414.722l73.277-42.3a8.8,8.8,0,0,0,4.209-6.7c0-2.341-1.883-5.358-4.209-6.7L241.35,314.41V415.769A7.75,7.75,0,0,0,245.334,414.722Z" transform="translate(-85.964 -273.112)"/><path class="b" d="M185.92,391.655a8.236,8.236,0,0,1-7.422,0L32.475,307.329c-3.14-1.817-3.14-4.783,0-6.593l73.015-42.112a9.334,9.334,0,0,1,8.418,0l147.018,84.886c2.319,1.338,2.319,3.526,0,4.856Z" transform="translate(-28.288 -257.606)"/><path class="e" d="M185.92,391.655a8.236,8.236,0,0,1-7.422,0L32.475,307.329c-3.14-1.817-3.14-4.783,0-6.593l73.015-42.112a9.334,9.334,0,0,1,8.418,0l147.018,84.886c2.319,1.338,2.319,3.526,0,4.856Z" transform="translate(-28.288 -257.606)"/><path class="f" d="M183.868,386.118a8.81,8.81,0,0,1-8,0L50.226,313.576c-2.181-1.272-2.181-3.344,0-4.616L118.908,269.3a8.912,8.912,0,0,1,8,0L252.55,341.847c2.181,1.272,2.181,3.351,0,4.623Z" transform="translate(-33.331 -260.538)"/><path class="g" d="M122.666,268.37a8.142,8.142,0,0,0-3.758.938L50.226,308.963c-2.181,1.272-2.181,3.344,0,4.616l13.616,7.858,58.825-37.562Z" transform="translate(-33.331 -260.541)"/><path class="b" d="M127.2,273.434a8.9,8.9,0,0,0-8,0L50.51,313.089a4.153,4.153,0,0,0-1.04.836,3.984,3.984,0,0,0,1,.778l125.646,72.542a8.81,8.81,0,0,0,8,0L252.8,347.6a4.225,4.225,0,0,0,1.032-.829,4.005,4.005,0,0,0-.989-.792Z" transform="translate(-33.572 -261.665)"/><path class="h" d="M127.2,273.434a8.9,8.9,0,0,0-8,0L50.51,313.089a4.153,4.153,0,0,0-1.04.836,3.984,3.984,0,0,0,1,.778l125.646,72.542a8.81,8.81,0,0,0,8,0L252.8,347.6a4.225,4.225,0,0,0,1.032-.829,4.005,4.005,0,0,0-.989-.792Z" transform="translate(-33.572 -261.665)"/><path class="f" d="M84.241,295.4l12.176-7.051c.727-.422.727-1.076.08-1.454a2.806,2.806,0,0,0-2.544.051l-12.162,7.03c-.727.414-.727,1.076-.08,1.454a2.828,2.828,0,0,0,2.53-.029Z" transform="translate(-42.245 -265.523)"/><path class="f" d="M112.931,281.463a.727.727,0,1,0,0-1.454,2.726,2.726,0,0,0-2.464,0,.727.727,0,1,0,0,1.454,2.726,2.726,0,0,0,2.464,0Z" transform="translate(-50.028 -263.639)"/><path class="f" d="M119.779,277.545a.727.727,0,0,0,0-1.418,2.7,2.7,0,0,0-2.472,0,.727.727,0,0,0,0,1.418A2.7,2.7,0,0,0,119.779,277.545Z" transform="translate(-51.94 -262.577)"/><path class="f" d="M65.411,308.893a.727.727,0,0,0,0-1.454,2.726,2.726,0,0,0-2.464,0,.727.727,0,1,0,0,1.454A2.726,2.726,0,0,0,65.411,308.893Z" transform="translate(-37.053 -271.129)"/><path class="f" d="M72.282,304.973c.683-.4.683-1.032,0-1.454a2.726,2.726,0,0,0-2.464,0c-.683.393-.683,1.025,0,1.454a2.726,2.726,0,0,0,2.464,0Z" transform="translate(-38.988 -270.058)"/><path class="b" d="M89.747,361.77a2.806,2.806,0,0,1,1.316,2.181.829.829,0,0,1-.363.771c-.16.087-.727.443-.923.531a.938.938,0,0,1-.945-.109l-17.076-9.872a2.821,2.821,0,0,1-1.316-2.181.836.836,0,0,1,.327-.727l.952-.552a.974.974,0,0,1,.952.109Z" transform="translate(-39.297 -283.304)"/><path class="d" d="M89.747,361.77a2.806,2.806,0,0,1,1.316,2.181.829.829,0,0,1-.363.771c-.16.087-.727.443-.923.531a.938.938,0,0,1-.945-.109l-17.076-9.872a2.821,2.821,0,0,1-1.316-2.181.836.836,0,0,1,.327-.727l.952-.552a.974.974,0,0,1,.952.109Z" transform="translate(-39.297 -283.304)"/><path class="b" d="M88.861,362.487l-17.105-9.879c-.727-.422-1.316-.124-1.316.662a2.82,2.82,0,0,0,1.316,2.181l17.105,9.872c.727.422,1.316.124,1.316-.662a2.806,2.806,0,0,0-1.316-2.174Z" transform="translate(-39.297 -283.49)"/><path class="e" d="M88.861,362.487l-17.105-9.879c-.727-.422-1.316-.124-1.316.662a2.82,2.82,0,0,0,1.316,2.181l17.105,9.872c.727.422,1.316.124,1.316-.662a2.806,2.806,0,0,0-1.316-2.174Z" transform="translate(-39.297 -283.49)"/><path class="b" d="M61.67,345.539a2.82,2.82,0,0,1,1.316,2.181.814.814,0,0,1-.363.771l-.923.538a.974.974,0,0,1-.945-.109l-8.069-4.66a2.82,2.82,0,0,1-1.316-2.181.843.843,0,0,1,.334-.727c.167-.1.785-.465.952-.553a.967.967,0,0,1,.952.1Z" transform="translate(-34.09 -280.296)"/><path class="d" d="M61.67,345.539a2.82,2.82,0,0,1,1.316,2.181.814.814,0,0,1-.363.771l-.923.538a.974.974,0,0,1-.945-.109l-8.069-4.66a2.82,2.82,0,0,1-1.316-2.181.843.843,0,0,1,.334-.727c.167-.1.785-.465.952-.553a.967.967,0,0,1,.952.1Z" transform="translate(-34.09 -280.296)"/><path class="b" d="M60.755,346.26l-8.069-4.66c-.727-.414-1.316-.116-1.316.669a2.821,2.821,0,0,0,1.316,2.181l8.069,4.66c.727.414,1.316.116,1.316-.669a2.806,2.806,0,0,0-1.316-2.181Z" transform="translate(-34.09 -280.486)"/><path class="e" d="M60.755,346.26l-8.069-4.66c-.727-.414-1.316-.116-1.316.669a2.821,2.821,0,0,0,1.316,2.181l8.069,4.66c.727.414,1.316.116,1.316-.669a2.806,2.806,0,0,0-1.316-2.181Z" transform="translate(-34.09 -280.486)"/></g></g><g transform="translate(120.663 281.75)"><path class="i" d="M154.249,363.262l19.01,11.021a2.268,2.268,0,0,0,2.072,0L229.9,342.827a.632.632,0,0,0,0-1.2l-19.01-11.021a2.29,2.29,0,0,0-2.072,0l-54.565,31.477a.632.632,0,0,0,0,1.178Z" transform="translate(-153.848 -329.358)"/><g transform="translate(2.052)"><path class="g" d="M228.442,339.63a.727.727,0,0,0-.422-.589l-17-9.814a2.217,2.217,0,0,0-2.028,0l-51.9,30.008a.727.727,0,0,0-.422.589v1.781a.727.727,0,0,0,.422.589l17,9.814a2.26,2.26,0,0,0,2.028,0l51.9-29.929a.727.727,0,0,0,.422-.582Z" transform="translate(-156.67 -328.982)"/><path class="f" d="M174.1,370.177l-17-9.77a.618.618,0,0,1,0-1.17l51.9-30.008a2.217,2.217,0,0,1,2.028,0l17,9.814a.618.618,0,0,1,0,1.17l-51.9,29.965A2.217,2.217,0,0,1,174.1,370.177Z" transform="translate(-156.671 -328.982)"/><path class="g" d="M175.043,382.013v1.825a2.05,2.05,0,0,1-.952-.233L157.1,373.792a.727.727,0,0,1-.422-.589v-1.8a.727.727,0,0,0,.422.589l16.989,9.778A2.18,2.18,0,0,0,175.043,382.013Z" transform="translate(-156.673 -340.565)"/><path class="b" d="M211.052,331.447h0l1.687.967-2.283,1.323-1.745-.981,2.283-1.316Zm2.639,1.519h0l1.679.974-1.788,1.032-1.7-.945,1.8-1.04Zm-5.816.32h.036l1.687.974-1.8,1.032-1.737-.967,1.788-1.04Zm8.462,1.2h0l1.687.974-2.908,1.672-1.737-.974,2.908-1.672Zm-5.336.036h0l1.687.974-1.454.821-1.737-.974,1.454-.821Zm-5.816.327h.036l1.687.967-1.8,1.04-1.737-.981,1.788-1.032Zm3.489,1.025h.044l1.679.967-1.425.822-1.737-.974,1.454-.821Zm10.308.138h0l1.679.967-2.239,1.33-1.737-.981,2.283-1.316Zm-16.495.393h0l1.679.974-12.954,7.48-1.745-.981,12.962-7.473Zm10.054.276h.036l1.686.974-1.454.821-1.745-.974,1.454-.821Zm-6.194.538h0l1.687.967-1.454.821-1.745-.974,1.454-.821Zm15.266.313h0l1.687.974-1.454.821-1.745-.981,1.454-.821Zm-5.816.32h.036l1.679.974-1.454.821-1.737-.981,1.454-.821Zm-5.583.182h.036l1.687.967-1.454.821-1.745-.974,1.454-.821Zm-6.194.531h0l1.687.974-1.454.821-1.745-.981,1.454-.821Zm15.266.313h.044l1.679.974-1.454.821-1.737-.981,1.454-.821Zm-5.816.32h.036l1.686.974-1.454.821L212,340.011l1.454-.821Zm-5.583.182h.044l1.679.967-1.454.821-1.737-.974,1.454-.821Zm16.938,0h.036l1.687.967-1.8,1.04-1.737-.981,1.788-1.032Zm-23.132.531h.007l1.679.974-1.454.821-1.679-.974,1.418-.822Zm15.266.313h.007l1.679.974-1.454.821-1.679-.974,1.454-.821Zm-5.816.32h0l1.687.974-1.454.822-1.679-.967,1.454-.822Zm-5.576.182h.036l1.679.974-1.454.821-1.737-.981,1.454-.821Zm-6.194.531h0l1.679.974-1.454.821-1.737-.981,1.454-.822Zm21.743.269h0l1.687.967-1.454.829-1.745-.981,1.454-.822Zm-6.477.044h0l1.687.974-1.454.821-1.745-.974,1.454-.822Zm-5.816.32h.044l1.679.974-1.454.821-1.766-.931,1.454-.821Zm-5.576.182h0l1.687.974-1.454.821-1.745-.981,1.454-.821Zm-6.194.531h.036l1.687.974-1.454.821-1.745-.974,1.454-.821Zm21.743.269h.044l1.679.974-1.454.822-1.737-.981,1.418-.821Zm-6.477.044h.036l1.687.974-1.454.821-1.745-.974,1.454-.821Zm-5.816.327h0l1.687.967-1.454.821L205,344.053l1.454-.821Zm-5.583.174h0l1.687.974-1.454.821-1.737-1,1.418-.821Zm-6.194.538h.036l1.687.967-1.454.821-1.737-.974,1.418-.821Zm21.75.262h0l1.679.974-1.454.821-1.737-.981,1.454-.821Zm-6.484.051h.044l1.679.967-1.454.821-1.737-.974,1.454-.821Zm-21.336.145h-.044l1.687.974-1.8,1.032-1.737-.974,1.788-1.04Zm15.513.174h.036l1.686.967-1.454.829L202.7,345.4l1.454-.821Zm-5.576.174h.036l1.679.974-1.454.822-1.737-.974,1.454-.821Zm-6.194.538h0l1.679.967-1.454.821-1.737-.974,1.454-.821Zm21.743.262h.036l1.687.974-1.454.822-1.81-.967,1.454-.822Zm-6.477.051h0l1.687.967-1.454.829-1.737-.981,1.454-.821Zm-5.816.32h.044l1.679.974-1.454.822-1.737-.981,1.454-.821Zm-15.877.044h.036l1.687.967-1.8,1.04L184.17,347l1.788-1.032Zm10.3.131h0l1.643,1.01-1.454.821-1.745-.974,1.454-.821Zm-6.194.538h-.015l1.687.974-1.454.821-1.745-.981,1.454-.821Zm15.266.313h-.015l1.687.974-1.454.821-1.745-.981,1.454-.821Zm-5.816.32h0l1.687.974-1.454.821-1.737-.981,1.454-.821Zm-5.583.182h.036l1.687.967-1.454.821-1.745-.974,1.454-.822Zm16.873,0h0l1.679.974-1.454.822-1.737-.981,1.454-.822Zm-27.537.036h0l1.679.974-1.788,1.032-1.745-.981,1.8-1.032Zm4.471.458h.036l1.686.974-1.454.821-1.737-.981,1.418-.821Zm15.266.313h.044l1.679.974-1.454.821-1.737-.981,1.418-.821Zm-5.816.32h.036l1.687.974-1.454.821-1.745-.981,1.454-.821Zm-5.583.182h.044l1.679.974-1.454.821-1.825-.938,1.454-.822Zm16.872.036h.036l1.686.974-1.454.822-1.745-.981,1.454-.821Zm-27.908.247h0l1.687.974L180,351.337l-1.745-.974,2.283-1.316Zm4.842.247h.044l1.679.974-4.587,2.661-1.737-.981,4.493-2.6Zm15.266.313h.036l1.679.974-1.454.822-1.737-.981,1.454-.814Zm-5.816.32h.044l1.679.974-1.454.821-1.737-.974,1.418-.821Zm-5.576.182h.036l1.687.974-1.454.821-1.745-.981,1.454-.821Zm16.865.036h.036l1.687.974-1.454.821-1.832-.93,1.418-.822Zm-7.793.807h.036l1.686.974-1.454.821-1.745-.974,1.454-.821Zm-21.46.225h0l1.687.967-1.454.821-1.745-.974,1.454-.821Zm15.637.1h.036l1.679.967-1.454.821-1.737-.974,1.454-.822Zm-5.583.174h.036l1.687.974-1.3.727a.273.273,0,0,0,.007.487l2.181,1.272-1.672.967-4.362-2.5,3.388-1.955Zm16.873.036h.036l1.679.974-1.454.821-1.737-.974,1.454-.822Zm-7.8.814h0l1.687.967-1.454.821-1.737-.974L196,352.3Zm-21.46.218h.036l1.687.967-1.5.894-1.737-.981,1.418-.821Zm15.637.1h.036l1.687.967-1.454.821-1.745-.974,1.454-.821Zm10.272.8h.044l1.679.974-1.454.821-1.737-.981,1.418-.821Zm-6.775.225h.036l1.679.967-1.454.829-1.737-.981,1.454-.822Zm-21.467.218h.044l1.679.974-1.454.821-1.737-.981,1.454-.822Zm4.972.174h.036l1.679.974-1.454.821-1.737-.981,1.454-.821Zm20.943.727h.036l1.679.974-1.454.822-1.817-.93,1.454-.821Zm-6.782.225h.036l1.687.967-2.53,1.454-1.745-.974,2.53-1.454Zm-21.954.5h.036l1.687.974L167.4,358.65l-1.737-.981,3.751-2.181Zm15.39.24h.044l1.679.974-1.454.821-1.737-.974,1.454-.821Zm11.013.385h.036l1.687.974-1.454.821-1.745-.974,1.454-.821Zm-23.764.894h.036l1.679.974-1.454.821-1.737-.974,1.454-.821Zm10.424.073h.036l1.679.967-1.454.821-1.737-.974,1.454-.821Zm4.965.174h0l1.686.967-1.454.829-1.745-.981,1.454-.821Zm6.041.2h0l1.686.967-1.454.821L192,358.279l1.454-.822Zm-28.729.727h.036l1.687.974-1.454.821-1.745-.974,1.454-.821Zm4.965.182h.036l1.687.967-1.454.821-1.745-.974,1.454-.821Zm10.424.065h.036l1.585,1.032-1.454.829-1.745-.981,1.454-.822Zm-5.459.109h.036l1.687.967-1.454.821-1.737-.974,1.418-.821Zm10.424.065h.036l1.687.974-1.454.821-1.745-.981,1.454-.822Zm5.532.5h.036l1.679.967-1.454.829-1.737-.981,1.454-.822Zm-28.22.429h.036l4.318,2.486-1.454.829-4.362-2.5,1.454-.821Zm4.965.174h.044l1.679.967-1.454.829-1.737-.981,1.454-.821Zm4.965.174h.044l1.679.967-1.454.829-1.737-.981,1.454-.821Zm10.424.065h.044l1.679.974-1.454.821-1.737-.981,1.418-.821Zm-5.452.109h.036l1.679.974-1.454.821-1.81-.938,1.454-.821Zm10.984.393h0l1.687.974-1.454.821-1.745-.981,1.454-.821Zm-18.283.778h.036l1.687.974-1.454.821-1.745-.981,1.454-.821Zm4.965.174h.036l1.687.974-1.454.822-1.745-.981,1.454-.821Zm4.885.24h0l1.687.974-1.454.821-1.745-.981,1.454-.821Zm6.019.218h.036l1.687.974-1.454.821-1.737-.981,1.418-.821Zm-18.283.778h.036l4.318,2.493-1.454.821-4.362-2.5,1.454-.822Zm4.965.174h0l1.686.974-1.454.821-1.657-1.01,1.454-.814Zm4.965.174h.036l1.687.974-1.454.821-1.737-.974,1.454-.821Zm6.186.836h0l.727.414-1.454.821-.785-.422,1.454-.821Zm-8.534.451h.036l1.679.974-1.454.822-1.737-.974,1.454-.821Zm6.2.894h.044l.727.414-1.454.821-.778-.422,1.41-.821Zm-8.534.458h.036l1.687.967-1.454.821-1.745-.974,1.454-.821Zm6.208.887h.036l.727.414-1.454.821-.778-.422,1.454-.814Zm-2.334,1.345h0l.727.414-1.454.821-.785-.422,1.454-.814Z" transform="translate(-157.847 -329.653)"/></g></g><g transform="translate(62.59 156.001)"><path class="j" d="M95.892,335.817c.785,1.985,2.479,3.017,4.987,4.136,7.342,3.308,24.942,7.27,34.821,9.029,5.75,1.025,11.631,2.908,17.5,3.162,5.256.211,10.708-.727,15.07-3.693a3.271,3.271,0,0,0,1.41-1.534,2.479,2.479,0,0,0-1.229-2.726,7.407,7.407,0,0,0-3.1-.822,126.642,126.642,0,0,1-34.029-9.021c4.878-.516,9.836-1.047,14.372-2.908s8.723-5.256,10.294-9.894a5.3,5.3,0,0,1,1.352-2.581,3.126,3.126,0,0,1,2.966-.276c3.191,1.141,4.456,4.878,5.4,8.135s2.515,6.971,5.816,7.72c-1.2-.727-.727-2.806.538-3.308a3.2,3.2,0,0,1,3.584,1.454c.771,1.17.967,2.5,1.607,3.686s2.014,2.181,3.257,1.694a3.075,3.075,0,0,0,1.454-1.556c1.759-3.438,1.454-7.677-.1-11.217a29.511,29.511,0,0,0-6.957-9.174,40.143,40.143,0,0,0-13.3-8.941c-10.541-3.962-22.4-1.076-32.844,3.14a136.5,136.5,0,0,0-22.6,11.668,37.88,37.88,0,0,0-7.444,5.816c-1.592,1.7-3.264,4.115-3.1,6.543A4.96,4.96,0,0,0,95.892,335.817Z" transform="translate(-79.871 -196.767)"/><g transform="translate(0)"><g transform="translate(53.873 58.367)"><path class="k" d="M199.56,305.735c-1.541-2.384-4.3-7.27-5.169-8.273-2.363-2.69-7.233-6.942-7.233-6.942-4.594-3.744-18.7-16.2-18.7-16.2s-2.181-27.624-4.623-32.044c-2.821-5.147-8.185-5.358-13.739-5.692a108.324,108.324,0,0,0-2.021,10.9s4.994,30.983,5.59,33.861,2.057,4.144,5.031,6.055c4.543,2.908,20.98,11.74,20.98,11.74l.807.56a3.228,3.228,0,0,1,1.192,1.585,9.348,9.348,0,0,1,.429,1.963c.262,2.29,0,2.908.2,5.408s.727,2.421,1.708,4.565c.88,1.985,1.141,3.228,1.868,3.3s1.657-1.541,1.657-3.177-1-3.438-1.032-4.129.327-1.548,1.883-.632,3.01,3.7,4.165,5.627,1.774,4.471,2.944,5.859,1.607-.153,2.145-1.454,3.162-3.424,3.853-5.5S201.086,308.126,199.56,305.735Z" transform="translate(-148.07 -236.37)"/><path class="f" d="M150.569,236.327c3.824,0,6.928-.422,10.294,1.628s4.274,4.856,5.038,9.218c.691,3.969,2.094,17.636,2.094,17.636s-9.712,5.358-18.174,1.941Z" transform="translate(-148.548 -236.291)"/><path class="b" d="M206.75,339.19Z" transform="translate(-164.093 -264.387)"/></g><path class="g" d="M161.9,210.56a21.575,21.575,0,0,1,4.609,2.137,4.064,4.064,0,0,1,1.4,5.51l-1.752-.349s.9-2.057-.153-3.155-4.136-2.05-4.136-2.05Z" transform="translate(-97.965 -170.898)"/><path class="b" d="M167.83,219.425c-1.454-.691-2.108.2-3.111,2.61s-.313,3.075.909,3.555,2.181-.327,2.908-2.326C169.379,221.017,169.357,220.173,167.83,219.425Z" transform="translate(-98.611 -173.257)"/><path class="j" d="M167.99,219.455c-1.454-.691-2.108.2-3.111,2.61s-.313,3.075.909,3.555,2.181-.327,2.908-2.326C169.546,221.047,169.524,220.2,167.99,219.455Z" transform="translate(-98.655 -173.265)"/><path class="l" d="M120.493,238.11a136.628,136.628,0,0,0-23.03,7.16s-.516,27.559,3.947,40.709,3.177,28.133,3.177,28.133c21.809,3.526,48.262-6.608,47.608-17.6a48.705,48.705,0,0,0-3.678-6.615s-.545-8.832-.305-12.765C164.2,262.165,142,242.966,136.268,236.38,132.778,236.831,127.653,236.5,120.493,238.11Z" transform="translate(-80.374 -177.948)"/><path class="f" d="M112.765,175.664c-1.032,1.854-.6,4.042-.182,6,.327,1.5,1.221,3.351.843,4.871a9.85,9.85,0,0,1-3.635,5.219,10.671,10.671,0,0,1-1.374.974c-.414.225-.894.327-1.316.56a5.9,5.9,0,0,0-2.144,2.181A16.444,16.444,0,0,0,103.4,199.6a14.4,14.4,0,0,1-1.636,4.093,8.462,8.462,0,0,1-7.517,3.555,10.177,10.177,0,0,1-4.529-1.454,12,12,0,0,1-1.941-1.454,4.922,4.922,0,0,1-1.279-1.7,8.2,8.2,0,0,0,1.367,5.5,9.639,9.639,0,0,1-11.231-10.81c.262-1.861,1.054-3.635,1.454-5.445,1.1-4.943-3.329-7.648-4.056-12.155a6.986,6.986,0,0,1,3.562-7.124c1.519-.8,3.518-1.2,4.151-2.791.487-1.221-.109-2.581-.087-3.9,0-2.6,2.457-4.587,4.929-5.372s5.154-.778,7.647-1.519c2.661-.785,5.089-2.406,7.793-2.908a10.046,10.046,0,0,1,8.869,3.024c1.025,1.09,1.585,2.363,2.493,3.489s2.3,1.708,2.966,3.031a6.114,6.114,0,0,1,.189,5.627C115.636,173.033,113.71,173.985,112.765,175.664Z" transform="translate(-73.962 -156.001)"/><path class="l" d="M143.89,183.785c-.305-8.651-5.329-20.994-23.917-19.417-18.116,1.541-23.444,17.7-21.808,26.475,2.3,12.111,11.115,12.889,13.4,20.805Z" transform="translate(-80.494 -158.248)"/><path class="k" d="M104.927,195.108a4.362,4.362,0,0,1,4.551-1.512,4.493,4.493,0,0,1,2.239,1.454c.836.923.821,2.181,1.41,3.235a2.392,2.392,0,0,0,1.774,1.287c2.493.225,1.563-3.824,1.7-5.263,4.711-1.672,4.58-3.417,5.219-7.575,3.3-3.562,9.029-4.085,13.987-.676,3.024-5.816,6.3-5.089,7.72-3.293a23.263,23.263,0,0,1,2.115,6.768,45.02,45.02,0,0,1,.792,10.679c-.611,13.892-5.19,17.229-7.473,18.174s-5.089.262-9.283-.531V226.2c4.362,8.324,7.844,20.922,7.677,29.151-6.71-12.707-17.214-19.5-22.179-24.12a18.994,18.994,0,0,1-3-3.46V205.845s-1.832,1.955-4.74-.356C103.546,202.378,102.354,198.016,104.927,195.108Z" transform="translate(-82.044 -162.956)"/><path class="m" d="M134.187,227.824c-3.635-.945-7.524-2.319-10.177-4.362a12.562,12.562,0,0,1-3.94-5.532s.313,5.358,3.01,7.771,11.137,5.2,11.137,5.2Z" transform="translate(-86.552 -172.911)"/><path class="g" d="M138.826,204.248a1.926,1.926,0,1,1-2.181-1.723,1.963,1.963,0,0,1,2.181,1.723Z" transform="translate(-90.623 -168.7)"/><path class="g" d="M157.755,202a1.766,1.766,0,0,1-1.454,2.028,1.672,1.672,0,0,1-1.977-1.563,1.746,1.746,0,0,1,3.46-.465Z" transform="translate(-95.9 -168.148)"/><path class="m" d="M145.82,199.26l1.367,11.573,5.946-2.268Z" transform="translate(-93.583 -167.813)"/><path class="g" d="M137.134,196.318l-4.362,1.992a2.5,2.5,0,0,1,1.214-3.249,2.341,2.341,0,0,1,3.148,1.258Z" transform="translate(-89.963 -166.608)"/><path class="n" d="M136.836,217.18l6.259,2.123a3.468,3.468,0,0,1-4.318,2.108,3.228,3.228,0,0,1-1.941-4.231Z" transform="translate(-91.068 -172.706)"/><path class="m" d="M137.01,219.19a3.249,3.249,0,0,1,3.068,2.908,3.235,3.235,0,0,1-1.279-.16,3.14,3.14,0,0,1-2.108-2.719A2.26,2.26,0,0,1,137.01,219.19Z" transform="translate(-91.09 -173.255)"/><path class="g" d="M158.165,196.275l-4.405-1.934a2.3,2.3,0,0,1,3.1-1.287,2.53,2.53,0,0,1,1.309,3.22Z" transform="translate(-95.751 -166.063)"/><path class="g" d="M139.49,235.21c2.806.814,11.006,11.907,13.667,15.906l-3.01,7.677a35.446,35.446,0,0,1,4.747,6.128l-6.128,17.847s.552-23.779-9.276-41.872Z" transform="translate(-91.854 -177.629)"/><path class="f" d="M140.02,269.656c2.181,5.663,2.486,18.792,2.486,18.792s-2.181-12.249-12.482-16.538c0-.589.109-8.978.109-8.978s-13.812-3.5-16.72-4.82l-2.973-15.993s1.985-4.958,3.635-5.089v3.453a160.654,160.654,0,0,1,13.034,11.471C134.64,259.217,137.853,263.993,140.02,269.656Z" transform="translate(-83.922 -178.126)"/><path class="k" d="M168.106,329.354c-2.224-1.868-5.445-4.456-8-5.089a14.444,14.444,0,0,0-1.81-.4,19.412,19.412,0,0,0,2.537-.727,4.609,4.609,0,0,0,2.065-1.628c.189-.3.305-.727,0-.96a.611.611,0,0,0-.371-.1c-1.883.095-3.388-.073-5.089-.058a7.357,7.357,0,0,0-2.3.233c-.683.254-1.367.516-2.035.807-3.031,1.338-5.816,2.544-10.294,1.883l-1.876-.494-31.535-16.247L103.422,274s-1.454-20.195-9.632-25.094c-4.362,1.657-9.138,5.757-10.432,10.177-1.527,5.256-.93,12.722,1.672,24.3,2.181,9.69,4.456,19.628,6.921,27.006s3.409,9.988,8.251,11.435c8.12,2.428,37.416,10.461,37.416,10.461a19.236,19.236,0,0,0,1.832.6,29.513,29.513,0,0,0,4.362,1.5c2.857.625,6.332-.676,8.723-1.01s6.593.451,8.912,1.178,4.725-2.951,5.881-2.624S170.338,331.23,168.106,329.354Z" transform="translate(-76.301 -181.37)"/><path class="m" d="M183.87,350a8.541,8.541,0,0,0-3.38.836,18.771,18.771,0,0,1,4.529.407,19.4,19.4,0,0,0,2.537-.727,4.863,4.863,0,0,0,1.883-1.374C188.13,350.172,185.513,350.027,183.87,350Z" transform="translate(-103.049 -208.738)"/><path class="f" d="M93.1,248.61c-5.648,2.413-9.392,5.365-10.9,11.58s-.443,11.675.829,18.254,4.253,17.272,4.253,17.272,12.089.727,19.061-4.107l-3.816-24.8s-2.014-14.728-9.036-17.97" transform="translate(-76.006 -181.288)"/><path class="b" d="M108.052,166.731c-4.245,3.933-8.316,9.509-5.3,22.412a7,7,0,0,0-1.752,7.27c1.163,3.984,4.987,6.608,8.542,5.816s5.481-4.587,4.318-8.578c-.88-2.98-4.078-5.866-6.71-5.677,0,0-2.523-5.518-.16-13.34,3.228-10.657,15.651-11.544,21.118-10.679C126.277,161.359,113.664,161.533,108.052,166.731Z" transform="translate(-81.243 -157.724)"/><path class="d" d="M108.052,166.731c-4.245,3.933-8.316,9.509-5.3,22.412a7,7,0,0,0-1.752,7.27c1.163,3.984,4.987,6.608,8.542,5.816s5.481-4.587,4.318-8.578c-.88-2.98-4.078-5.866-6.71-5.677,0,0-2.523-5.518-.16-13.34,3.228-10.657,15.651-11.544,21.118-10.679C126.277,161.359,113.664,161.533,108.052,166.731Z" transform="translate(-81.243 -157.724)"/><path class="b" d="M113.784,202.739c-1.294-4.42-5.532-7.32-9.45-6.492a6.012,6.012,0,0,0-1.708.64c-.443.247-1.781,1.163-2.043,1.338-2.515,1.665-3.635,5.089-2.639,8.607,1.294,4.42,5.532,7.32,9.45,6.492a6.158,6.158,0,0,0,2.035-.829c.32-.2,1.57-1.04,1.876-1.258C113.712,209.543,114.795,206.206,113.784,202.739Z" transform="translate(-80.411 -166.951)"/><path class="e" d="M113.784,202.739c-1.294-4.42-5.532-7.32-9.45-6.492a6.012,6.012,0,0,0-1.708.64c-.443.247-1.781,1.163-2.043,1.338-2.515,1.665-3.635,5.089-2.639,8.607,1.294,4.42,5.532,7.32,9.45,6.492a6.158,6.158,0,0,0,2.035-.829c.32-.2,1.57-1.04,1.876-1.258C113.712,209.543,114.795,206.206,113.784,202.739Z" transform="translate(-80.411 -166.951)"/><path class="b" d="M112.173,204.221c-1.294-4.413-5.532-7.32-9.45-6.484s-6.077,5.089-4.783,9.5,5.532,7.32,9.45,6.492S113.467,208.64,112.173,204.221Z" transform="translate(-80.406 -167.358)"/><path class="j" d="M112.173,204.221c-1.294-4.413-5.532-7.32-9.45-6.484s-6.077,5.089-4.783,9.5,5.532,7.32,9.45,6.492S113.467,208.64,112.173,204.221Z" transform="translate(-80.406 -167.358)"/><path class="f" d="M109.89,206.635a4.069,4.069,0,0,0-4.471-3.06,3.363,3.363,0,0,0-2.261,4.485,4.091,4.091,0,0,0,4.471,3.06A3.39,3.39,0,0,0,109.89,206.635Z" transform="translate(-81.882 -168.973)"/></g></g><g transform="translate(161.868 251.832)"><path class="j" d="M225.956,406.45l-14.7-8.607a.727.727,0,1,1,0-1.454l57.64-33.28a2.683,2.683,0,0,1,2.443,0l14.684,8.542a.727.727,0,0,1,0,1.41l-57.633,33.4A2.668,2.668,0,0,1,225.956,406.45Z" transform="translate(-210.53 -308.303)"/><g transform="translate(3.629)"><path class="g" d="M280.961,337.487l3.86-45.8a3.918,3.918,0,0,0-1.716-3.431,4.362,4.362,0,0,0-3.926.073l-57.574,33.243a5.023,5.023,0,0,0-2.224,3.5l-3.853,45.8a3.889,3.889,0,0,0,1.708,3.431,4.362,4.362,0,0,0,3.933-.073l57.574-33.214A4.994,4.994,0,0,0,280.961,337.487Z" transform="translate(-215.522 -287.827)"/><path class="f" d="M286.563,291.693l-3.853,45.8,2.8-45.464c.1-1.287-.363-1.774-1.454-1.134l-56.869,32.865a4.588,4.588,0,0,0-1.454,1.49l-3.8-2.181a4.448,4.448,0,0,1,1.454-1.454l57.567-33.243a4.4,4.4,0,0,1,3.94-.073,3.911,3.911,0,0,1,1.672,3.395Z" transform="translate(-217.272 -287.838)"/><path class="l" d="M220.757,374.1l3.86-45.8a4.994,4.994,0,0,1,2.217-3.5L283.7,291.893c1.12-.647,1.585-.153,1.454,1.134l-2.8,45.463A4.994,4.994,0,0,1,280.141,342l-57.574,33.236C221.477,375.914,220.655,375.4,220.757,374.1Z" transform="translate(-216.949 -288.86)"/><path class="g" d="M259.5,364.5l-.443,13.8,15.993-9.2-3.9-11.3Z" transform="translate(-227.41 -306.933)"/><path class="l" d="M262.167,366.252l11.166-6.484-1.9-1.1-11.159,6.492Z" transform="translate(-227.741 -307.171)"/><path class="f" d="M278.125,379.553l-6.106-19.373-11.166,6.492-1.89-1.1,1.25,14.917.313,4.289.182.916-.814-.465-3.635-2.079a.611.611,0,0,0-.545-.073h0a.56.56,0,0,0-.255.531v.327a1.745,1.745,0,0,0,.785,1.381h0l5.976,3.453h0a1.745,1.745,0,0,0,.727.189,1.673,1.673,0,0,0,.865-.2l13.6-7.851A1.4,1.4,0,0,0,278.125,379.553ZM269.54,377.9a2.348,2.348,0,0,1-3.635-1.454,4.5,4.5,0,0,1,2-4.754,2.334,2.334,0,0,1,3.635,1.454A4.493,4.493,0,0,1,269.54,377.9Z" transform="translate(-226.426 -307.583)"/><path d="M255.83,390.675,260.468,388l.938,6.237Z" transform="translate(-226.528 -315.179)"/><path class="g" d="M260.857,368.7l-1.9-1.1,1.57,19.191c.1.509-.189.727-.625.451l-3.635-2.079c-.443-.262-.8-.044-.8.465v.32a1.759,1.759,0,0,0,.771,1.388h0l5.99,3.453h0a1.673,1.673,0,0,0,.727.189Z" transform="translate(-226.43 -309.609)"/><path class="g" d="M273.689,382.063a2.334,2.334,0,0,1-3.039-.327,2.653,2.653,0,0,0,1.694-.393,4.478,4.478,0,0,0,2-4.747,2.777,2.777,0,0,0-.6-1.156,2.37,2.37,0,0,1,1.941,1.868A4.493,4.493,0,0,1,273.689,382.063Z" transform="translate(-230.575 -311.75)"/><path class="b" d="M261.4,343.85l-.727,8.832c-.051.582.269.851.727.6a2.094,2.094,0,0,0,.887-1.5l.727-8.825c.051-.589-.269-.851-.727-.6A2.13,2.13,0,0,0,261.4,343.85Z" transform="translate(-227.848 -302.688)"/><path class="b" d="M265.335,341.579l-.727,8.825c-.051.582.269.85.727.6a2.122,2.122,0,0,0,.887-1.512l.727-8.825c.051-.582-.269-.851-.727-.6a2.115,2.115,0,0,0-.887,1.5Z" transform="translate(-228.924 -302.067)"/><path class="b" d="M269.275,339.3l-.727,8.832c-.051.582.269.851.727.6a2.093,2.093,0,0,0,.887-1.5l.727-8.825c.051-.589-.269-.851-.727-.6A2.13,2.13,0,0,0,269.275,339.3Z" transform="translate(-230 -301.445)"/><path class="b" d="M273.215,337.029l-.727,8.825c-.044.582.269.851.727.6a2.123,2.123,0,0,0,.887-1.512l.727-8.825c.051-.582-.269-.851-.727-.6a2.115,2.115,0,0,0-.887,1.5Z" transform="translate(-231.076 -300.824)"/></g></g></g></svg>